<?xml version="1.0" encoding="utf-8"?>
<!-- Generator: Adobe Illustrator 24.3.0, SVG Export Plug-In . SVG Version: 6.00 Build 0)  -->
<svg version="1.0" id="katman_1" xmlns="http://www.w3.org/2000/svg" xmlns:xlink="http://www.w3.org/1999/xlink" x="0px" y="0px"
	 viewBox="0 0 841.89 595.28" style="enable-background:new 0 0 841.89 595.28;" xml:space="preserve">
<style type="text/css">
	.st0{fill:#03110A;}
</style>
<g>
	<path class="st0" d="M254.69,149.18V88.93h213.39c40.65,5.39,75.67,28.56,97.02,61.43c13.98,21.5,22.09,47.16,22.09,74.7
		c0,37.93-15.37,72.26-40.23,97.12c-3.16,3.16-6.44,6.13-9.88,8.98c-12.57-17.37-26.74-33.54-42.29-48.24
		c1.57-1.33,3.08-2.72,4.54-4.18c13.73-13.73,22.22-32.72,22.22-53.68c0-37.36-27.02-68.44-62.61-74.7
		c-4.31-0.8-8.75-1.18-13.29-1.18H275.17H254.69z"/>
	<path class="st0" d="M580.32,506.34h-61.05c-2.23-21.99-7.21-43.16-14.52-63.23c-8.83-24.12-21.07-46.62-36.15-66.87
		c-3.59-4.8-7.34-9.49-11.26-14.04c-21.3-24.86-47.19-45.73-76.34-61.25c-19.58-10.44-40.62-18.48-62.76-23.68v98.97h125.04
		c16.83,19.81,30.48,42.36,40.29,66.87H318.23v63.23h-63.53V209.43c0.9-0.03,1.82-0.03,2.72-0.03c20.78,0,41.13,1.95,60.81,5.7
		c60.25,11.44,114.6,39.57,158.04,79.42c16.11,14.73,30.69,31.07,43.52,48.78c7.67,10.52,14.68,21.53,21.04,32.95
		c11.65,20.96,21.04,43.37,27.84,66.87C574.57,463.44,578.52,484.58,580.32,506.34z"/>
</g>
</svg>
